<?xml version="1.0" encoding="utf-8"?>
<!-- Generator: Adobe Illustrator 22.0.1, SVG Export Plug-In . SVG Version: 6.00 Build 0)  -->
<svg version="1.1" id="Layer_1" xmlns="http://www.w3.org/2000/svg" xmlns:xlink="http://www.w3.org/1999/xlink" x="0px" y="0px"
	 viewBox="0 0 120 120" style="enable-background:new 0 0 120 120;" xml:space="preserve">
<style type="text/css">
	.st0{fill:#333333;}
</style>
<path class="st0" d="M103.8,26.7l-0.1-0.1c-0.1-0.2-0.2-0.4-0.4-0.5L80.6,3.3C80.4,3.1,80.2,3,80,2.9l-0.2-0.1
	c-0.2-0.1-0.4-0.2-0.6-0.2s-0.3,0-0.5,0H23c-1.4,0-2.6,1.2-2.6,2.6v47H18c-1.1,0-2,0.9-2,2V85c0,1.1,0.9,2,2,2h2.4v27.9
	c0,1.4,1.2,2.6,2.6,2.6h78.4c1.4,0,2.6-1.2,2.6-2.6V27.8c0-0.2,0-0.4,0-0.5C104,27.1,103.9,26.9,103.8,26.7z M98.7,112.2l-73.1,0.1
	V87h58.1c1.1,0,2-0.9,2-2V54.2c0-1.1-0.9-2-2-2H25.6V7.7h50.5v20c0,1.4,1.2,2.6,2.6,2.6h20V112.2z M41.9,71c-3-1-5-2.4-5-5.1
	c0-2.5,1.7-4.4,4.7-5v-2.7h2.7v2.5c1.9,0.1,3.1,0.5,4.1,0.9l-0.8,3.2c-0.7-0.3-2-1-4-1c-1.8,0-2.4,0.8-2.4,1.6c0,0.9,1,1.5,3.4,2.4
	c3.3,1.2,4.7,2.7,4.7,5.2s-1.8,4.6-5,5.2v2.9h-2.7v-2.7c-1.9-0.1-3.7-0.6-4.8-1.2l0.8-3.3c1.2,0.6,2.8,1.2,4.6,1.2
	c1.6,0,2.7-0.6,2.7-1.7C44.9,72.3,44,71.7,41.9,71z M57.4,71c-3-1-5-2.4-5-5.1c0-2.5,1.7-4.4,4.7-5v-2.7H60v2.5
	c1.9,0.1,3.1,0.5,4.1,0.9l-0.8,3.2c-0.7-0.3-2-1-4-1c-1.8,0-2.4,0.8-2.4,1.6c0,0.9,1,1.5,3.4,2.4C63.6,69,65,70.5,65,73
	s-1.8,4.6-5,5.2v2.9h-2.9v-2.7c-1.9-0.1-3.7-0.6-4.8-1.2l0.8-3.3c1.2,0.6,2.8,1.2,4.6,1.2c1.6,0,2.7-0.6,2.7-1.7
	C60.4,72.3,59.5,71.7,57.4,71z"/>
</svg>
