<?xml version="1.0" encoding="utf-8"?>
<!-- Generator: Adobe Illustrator 22.0.1, SVG Export Plug-In . SVG Version: 6.00 Build 0)  -->
<svg version="1.1" id="Layer_1" xmlns="http://www.w3.org/2000/svg" xmlns:xlink="http://www.w3.org/1999/xlink" x="0px" y="0px"
	 viewBox="0 0 120 120" style="enable-background:new 0 0 120 120;" xml:space="preserve">
<style type="text/css">
	.st0{fill:#FAFAFA;}
	.st1{fill:#333333;}
	.st2{enable-background:new    ;}
	.st3{fill:#FFFFFF;}
</style>
<g>
	<rect class="st0" width="120" height="120"/>
	<path class="st1" d="M104,27.3L104,27.3c0-0.2-0.1-0.4-0.2-0.6l-0.1-0.1c-0.1-0.2-0.2-0.4-0.4-0.5L80.6,3.3C80.4,3.1,80.2,3,80,2.9
		l-0.2-0.1c-0.2-0.1-0.4-0.2-0.6-0.2l0,0c-0.2,0-0.3,0-0.5,0H23c-1.4,0-2.6,1.2-2.6,2.6l0,0v109.7c0,1.4,1.2,2.6,2.6,2.6l0,0h78.4
		c1.4,0,2.6-1.2,2.6-2.6l0,0V27.8C104,27.6,104,27.4,104,27.3z M25.6,112.3V7.7h50.5v20c0,1.4,1.2,2.6,2.6,2.6l0,0h20v81.9
		L25.6,112.3z"/>
	<path class="st1" d="M18,52.2h65.7c1.1,0,2,0.9,2,2V85c0,1.1-0.9,2-2,2H18c-1.1,0-2-0.9-2-2V54.2C16,53.1,16.9,52.2,18,52.2z"/>
	<g class="st2">
		<path class="st3" d="M41.6,81.1v-2.7c-1.9-0.1-3.7-0.6-4.8-1.2l0.8-3.3c1.2,0.6,2.8,1.2,4.6,1.2c1.6,0,2.7-0.6,2.7-1.7
			s-0.9-1.7-3-2.4c-3-1-5-2.4-5-5.1c0-2.5,1.7-4.4,4.7-5v-2.7h2.7v2.5c1.9,0.1,3.1,0.5,4.1,0.9l-0.8,3.2c-0.7-0.3-2-1-4-1
			c-1.8,0-2.4,0.8-2.4,1.6c0,0.9,1,1.5,3.4,2.4c3.3,1.2,4.7,2.7,4.7,5.2s-1.8,4.6-5,5.2v2.9H41.6z"/>
		<path class="st3" d="M57.1,81.1v-2.7c-1.9-0.1-3.7-0.6-4.8-1.2l0.8-3.3c1.2,0.6,2.8,1.2,4.6,1.2c1.6,0,2.7-0.6,2.7-1.7
			s-0.9-1.7-3-2.4c-3-1-5-2.4-5-5.1c0-2.5,1.7-4.4,4.7-5v-2.7H60v2.5c1.9,0.1,3.1,0.5,4.1,0.9l-0.8,3.2c-0.7-0.3-2-1-4-1
			c-1.8,0-2.4,0.8-2.4,1.6c0,0.9,1,1.5,3.4,2.4C63.6,69,65,70.5,65,73s-1.8,4.6-5,5.2v2.9H57.1z"/>
	</g>
</g>
</svg>
