<?xml version="1.0" encoding="utf-8"?>
<!-- Generator: Adobe Illustrator 22.0.1, SVG Export Plug-In . SVG Version: 6.00 Build 0)  -->
<svg version="1.1" id="Layer_1" xmlns="http://www.w3.org/2000/svg" xmlns:xlink="http://www.w3.org/1999/xlink" x="0px" y="0px"
	 viewBox="0 0 120 120" style="enable-background:new 0 0 120 120;" xml:space="preserve">
<style type="text/css">
	.st0{fill:#FAFAFA;}
	.st1{fill:#333333;}
	.st2{clip-path:url(#SVGID_2_);}
	.st3{clip-path:url(#SVGID_4_);}
	.st4{fill:#FFFFFF;}
</style>
<g>
	<rect class="st0" width="120" height="120"/>
	<g>
		<path class="st1" d="M104,27.2L104,27.2c0-0.3-0.1-0.4-0.3-0.7v-0.1c-0.1-0.1-0.3-0.4-0.4-0.6L80.6,3.2c-0.1-0.1-0.3-0.3-0.6-0.4
			l-0.1-0.1c-0.1-0.1-0.4-0.1-0.6-0.1l0,0c-0.1,0-0.4,0-0.6,0H22.9c-1.4,0-2.6,1.1-2.6,2.6V115c0,1.4,1.1,2.6,2.6,2.6h78.3
			c1.4,0,2.6-1.2,2.6-2.6V27.8C104,27.7,104,27.5,104,27.2z M25.6,112.3V7.7h50.5v20c0,1.4,1.2,2.6,2.6,2.6h20.1v81.9L25.6,112.3z"
			/>
		<path class="st1" d="M18.9,52.1h64c1.6,0,2.9,1.3,2.9,2.9v29c0,1.6-1.3,2.9-2.9,2.9h-64c-1.6,0-2.9-1.3-2.9-2.9V55
			C16,53.4,17.3,52.1,18.9,52.1z"/>
		<g>
			<g>
				<g>
					<defs>
						<path id="SVGID_1_" d="M77,80.6h-4.2l-5.6-8.8l-5.8,8.8h-3.9L65,69.3L58.1,59h4l5.2,8.1l5.2-8.2h4l-7,10.3L77,80.6z
							 M49.2,66.8c-1,0-2,0.3-2.7,1c-0.7,0.9-1.1,1.9-1.3,3H53c0-1.2-0.3-2.2-1-3C51.2,67,50.2,66.6,49.2,66.8z M49.8,81
							c-2.3,0.1-4.5-0.7-6.2-2.3c-1.6-1.6-2.3-3.9-2.2-6c-0.1-2.3,0.6-4.5,2-6.2c1.4-1.6,3.6-2.4,5.8-2.3c2-0.1,3.9,0.6,5.3,2
							c1.3,1.4,2,3.5,1.9,5.3v1.9H45.1c0,1.3,0.4,2.6,1.3,3.6c1,0.9,2.3,1.3,3.6,1.3c1,0,1.9-0.1,2.9-0.3c1-0.3,1.9-0.6,2.7-0.9V80
							c-0.9,0.4-1.7,0.7-2.7,0.9C52,80.8,50.9,81,49.8,81z M35.4,80.7h-3.7V62.2h-6.6v-3h16.8v3h-6.6L35.4,80.7z"/>
					</defs>
					<clipPath id="SVGID_2_">
						<use xlink:href="#SVGID_1_"  style="overflow:visible;"/>
					</clipPath>
					<g class="st2">
						<g>
							<g>
								<g>
									<defs>
										<rect id="SVGID_3_" x="-24.4" y="-6.3" width="150.2" height="150.2"/>
									</defs>
									<clipPath id="SVGID_4_">
										<use xlink:href="#SVGID_3_"  style="overflow:visible;"/>
									</clipPath>
									<g class="st3">
										<rect x="8" y="44.9" class="st4" width="85.7" height="48.9"/>
									</g>
								</g>
							</g>
						</g>
					</g>
				</g>
			</g>
		</g>
	</g>
</g>
</svg>
