<?xml version="1.0" standalone="no"?>
<!DOCTYPE svg PUBLIC "-//W3C//DTD SVG 20010904//EN"
 "http://www.w3.org/TR/2001/REC-SVG-20010904/DTD/svg10.dtd">
<svg version="1.0" xmlns="http://www.w3.org/2000/svg"
 width="960.000000pt" height="514.000000pt" viewBox="0 0 960.000000 514.000000"
 preserveAspectRatio="xMidYMid meet">
<metadata>
Created by potrace 1.15, written by Peter Selinger 2001-2017
</metadata>
<g transform="translate(0.000000,514.000000) scale(0.100000,-0.100000)"
fill="#000000" stroke="none">
<path d="M66 5078 c-29 -292 -58 -755 -61 -965 l-4 -253 54 0 53 0 7 78 c18
213 58 509 71 521 7 7 5 -9 -11 -99 -8 -47 -15 -96 -14 -110 0 -14 11 36 24
110 13 74 21 137 19 139 -2 2 -4 -4 -4 -14 0 -10 -2 -16 -5 -13 -3 3 0 27 6
54 7 27 14 43 17 36 2 -8 19 22 38 65 39 89 38 87 22 77 -8 -4 -10 -3 -5 2 5
5 14 9 19 9 6 0 13 6 16 14 3 9 0 11 -9 6 -8 -5 -11 -4 -6 1 5 5 12 9 15 9 13
0 32 16 32 26 0 6 -6 7 -12 3 -7 -4 -2 5 11 19 25 27 37 35 26 17 -10 -16 0
-12 52 23 27 18 79 43 116 55 138 45 231 54 602 59 340 5 351 4 375 -15 l25
-20 0 -1701 c0 -1347 -3 -1703 -12 -1712 -19 -19 -15 -33 4 -18 10 7 7 1 -6
-13 -49 -55 -182 -78 -453 -78 l-168 0 0 -72 0 -73 850 0 850 0 0 71 0 71
-222 6 c-235 6 -310 17 -370 55 -41 27 -31 29 14 3 40 -24 141 -44 188 -38 32
3 31 4 -10 6 -64 2 -154 25 -187 47 -15 10 -30 18 -33 17 -3 -1 -7 8 -8 20 -2
12 -7 753 -11 1647 l-7 1625 1 -1620 c0 -891 -3 -1593 -8 -1560 -11 92 -4
3292 8 3304 7 7 10 -12 9 -57 l-2 -67 7 65 c4 36 11 74 16 85 8 18 7 19 -11 6
-10 -7 -6 -2 9 13 l28 26 295 0 c162 0 338 -5 392 -11 211 -22 352 -72 439
-155 26 -26 40 -41 31 -34 -12 8 -18 9 -18 2 0 -11 19 -27 32 -27 3 0 10 -4
15 -9 5 -5 2 -6 -6 -1 -9 5 -12 3 -9 -6 3 -8 10 -14 15 -14 6 0 15 -4 20 -9 5
-5 3 -6 -4 -2 -7 4 -13 6 -13 4 0 -13 70 -160 71 -148 1 19 18 -19 18 -40 0
-9 -4 -8 -9 5 -13 31 -12 13 6 -62 8 -37 24 -124 35 -193 11 -76 17 -98 13
-57 -4 63 -27 207 -41 267 -3 14 -3 22 1 19 12 -11 44 -202 60 -359 9 -85 18
-170 21 -188 2 -19 0 -30 -6 -27 -5 4 -9 30 -10 58 -1 67 -16 177 -17 127 0
-19 3 -70 6 -112 l8 -78 -141 -2 -140 -2 155 -6 155 -6 -152 -2 -153 -2 0 -83
0 -84 158 -6 c176 -7 219 -16 259 -53 16 -14 22 -22 14 -19 -10 6 -11 2 -5
-16 4 -13 11 -42 15 -64 l8 -40 -2 42 c-2 29 1 39 8 32 14 -14 14 -3334 -1
-3349 -7 -7 -8 5 -3 42 4 29 7 768 6 1643 l-2 1590 -5 -1630 c-5 -1527 -6
-1632 -23 -1664 -21 -43 -21 -47 1 -31 9 7 5 1 -10 -13 -36 -34 -102 -46 -273
-49 l-140 -3 -3 -73 -3 -72 1494 0 1494 0 82 583 c77 536 97 670 100 641 1 -6
-24 -183 -54 -394 -30 -211 -55 -393 -54 -404 1 -17 56 349 109 722 l12 82
137 2 136 2 -145 7 c-80 3 -9 4 158 2 l302 -4 0 75 c0 67 -2 76 -18 76 -34 0
-107 30 -137 56 l-30 26 32 -21 c39 -26 108 -51 137 -50 20 1 20 2 1 6 -62 14
-115 37 -135 58 -13 13 -26 22 -31 20 -4 -3 -11 0 -15 6 -5 8 -3 9 6 4 10 -6
11 -4 4 11 -11 24 -12 161 0 193 6 18 5 22 -5 16 -8 -5 -11 -4 -6 1 5 5 14 9
20 9 5 0 12 6 15 14 3 9 0 11 -9 6 -8 -5 -11 -4 -6 1 5 5 14 9 20 9 5 0 12 6
15 14 3 9 0 11 -9 6 -8 -5 -11 -4 -6 1 5 5 14 9 20 9 5 0 12 6 15 14 3 9 0 11
-9 6 -8 -5 -11 -4 -6 1 5 5 14 9 20 9 5 0 12 6 15 14 3 9 0 11 -9 6 -8 -5 -11
-4 -6 1 5 5 12 9 15 9 13 0 32 16 32 27 0 6 -7 5 -17 -3 -16 -11 -16 -11 -5 1
7 8 18 15 24 15 6 0 13 6 16 14 3 9 0 11 -9 6 -8 -5 -11 -4 -6 1 5 5 14 9 20
9 5 0 12 6 15 14 3 9 0 11 -9 6 -8 -5 -11 -4 -6 1 5 5 14 9 20 9 5 0 12 6 15
14 3 9 0 11 -9 6 -8 -5 -11 -4 -6 1 5 5 14 9 20 9 5 0 12 6 15 14 3 9 0 11 -9
6 -8 -5 -11 -4 -6 1 5 5 14 9 20 9 5 0 12 6 15 14 3 9 0 11 -9 6 -8 -5 -11 -4
-6 1 5 5 12 9 15 9 13 0 32 16 32 27 0 6 -7 5 -17 -3 -16 -11 -16 -11 -5 1 7
8 18 15 24 15 6 0 13 6 16 14 3 9 0 11 -9 6 -8 -5 -11 -4 -6 1 5 5 14 9 20 9
5 0 12 6 15 14 3 9 0 11 -9 6 -8 -5 -11 -4 -6 1 5 5 14 9 20 9 5 0 12 6 15 14
3 9 0 11 -9 6 -8 -5 -11 -4 -6 1 5 5 14 9 20 9 5 0 12 6 15 14 3 9 0 11 -9 6
-8 -5 -11 -4 -6 1 5 5 14 9 20 9 5 0 12 6 15 14 3 9 0 11 -9 6 -8 -5 -11 -4
-6 1 5 5 12 9 15 9 13 0 32 16 32 27 0 6 -7 5 -17 -3 -16 -11 -16 -11 -5 1 7
8 18 15 24 15 6 0 13 6 16 14 3 9 0 11 -9 6 -8 -5 -11 -4 -6 1 5 5 14 9 20 9
5 0 12 6 15 14 3 9 0 11 -9 6 -8 -5 -11 -4 -6 1 5 5 14 9 20 9 5 0 12 6 15 14
3 9 0 11 -9 6 -8 -5 -11 -4 -6 1 5 5 14 9 20 9 5 0 12 6 15 14 3 9 0 11 -9 6
-8 -5 -11 -4 -6 1 5 5 12 9 15 9 13 0 32 16 32 27 0 6 -7 5 -17 -3 -16 -11
-16 -11 -5 1 7 8 18 15 24 15 6 0 13 6 16 14 3 9 0 11 -9 6 -8 -5 -11 -4 -6 1
5 5 14 9 20 9 5 0 12 6 15 14 3 9 0 11 -9 6 -8 -5 -11 -4 -6 1 5 5 14 9 20 9
5 0 12 6 15 14 3 9 0 11 -9 6 -8 -5 -11 -4 -6 1 5 5 14 9 20 9 5 0 12 6 15 14
3 9 0 11 -9 6 -8 -5 -11 -4 -6 1 5 5 14 9 20 9 5 0 12 6 15 14 3 9 0 11 -9 6
-8 -5 -11 -4 -6 1 5 5 12 9 15 9 13 0 32 16 32 27 0 6 -7 5 -17 -3 -16 -11
-16 -11 -5 1 7 8 18 15 24 15 6 0 13 6 16 14 3 9 0 11 -9 6 -8 -5 -11 -4 -6 1
5 5 14 9 20 9 5 0 12 6 15 14 3 9 0 11 -9 6 -8 -5 -11 -4 -6 1 5 5 14 9 20 9
5 0 12 6 15 14 3 9 0 11 -9 6 -8 -5 -11 -4 -6 1 5 5 14 9 20 9 5 0 12 6 15 14
3 9 0 11 -8 6 -9 -6 -11 -4 -6 4 5 7 11 10 14 7 7 -7 32 13 32 26 0 6 -8 4
-17 -3 -16 -13 -17 -12 -5 3 8 10 19 16 24 15 6 -1 13 4 16 12 3 9 0 11 -9 6
-8 -5 -11 -4 -6 1 5 5 14 9 20 9 5 0 12 6 15 14 3 9 0 11 -9 6 -8 -5 -11 -4
-6 1 5 5 14 9 20 9 5 0 12 6 15 14 3 9 0 11 -9 6 -8 -5 -11 -4 -6 1 5 5 14 9
20 9 5 0 12 6 15 14 3 9 0 11 -9 6 -8 -5 -11 -4 -6 1 5 5 14 9 20 9 5 0 12 6
15 14 3 9 0 11 -8 6 -9 -6 -11 -4 -6 4 5 7 11 10 14 7 7 -7 32 13 32 26 0 6
-8 4 -17 -3 -16 -13 -17 -12 -5 3 8 10 19 16 24 15 6 -1 13 4 16 12 3 9 0 11
-9 6 -8 -5 -11 -4 -6 1 5 5 14 9 20 9 5 0 12 6 15 14 3 9 0 11 -9 6 -8 -5 -11
-4 -6 1 5 5 14 9 20 9 5 0 12 6 15 14 3 9 0 11 -8 6 -9 -6 -11 -4 -6 4 6 9 13
8 28 -6 11 -10 22 -17 25 -15 3 2 8 0 11 -4 4 -4 1 -4 -7 1 -9 5 -12 3 -9 -6
3 -8 10 -14 15 -14 6 0 15 -4 20 -9 5 -5 2 -6 -6 -1 -9 5 -12 3 -9 -6 3 -8 10
-13 16 -12 5 1 16 -5 24 -15 12 -15 11 -16 -4 -3 -10 7 -18 9 -18 3 0 -11 21
-30 33 -30 5 0 12 -4 15 -8 4 -4 1 -4 -7 1 -9 5 -12 3 -9 -6 3 -8 10 -14 15
-14 6 0 15 -4 20 -9 5 -5 2 -6 -6 -1 -9 5 -12 3 -9 -6 3 -8 10 -14 15 -14 6 0
15 -4 20 -9 5 -5 2 -6 -6 -1 -9 5 -12 3 -9 -6 3 -8 10 -14 15 -14 6 0 15 -4
20 -9 5 -5 2 -6 -6 -1 -9 5 -12 3 -9 -6 3 -8 10 -14 15 -14 6 0 15 -4 20 -9 5
-5 2 -6 -6 -1 -9 5 -12 3 -9 -6 3 -8 10 -14 15 -14 6 0 15 -4 20 -9 5 -5 2 -6
-6 -1 -9 5 -12 3 -9 -6 3 -8 10 -14 15 -14 6 0 15 -4 20 -9 5 -5 2 -6 -6 -1
-9 5 -12 3 -9 -6 3 -8 10 -13 16 -12 5 1 16 -5 24 -15 12 -15 11 -16 -4 -3
-10 7 -18 9 -18 3 0 -11 31 -39 37 -34 3 2 8 0 11 -4 4 -4 1 -4 -7 1 -9 5 -12
3 -9 -6 3 -8 10 -14 15 -14 6 0 15 -4 20 -9 5 -5 2 -6 -6 -1 -9 5 -12 3 -9 -6
3 -8 10 -14 15 -14 6 0 15 -4 20 -9 5 -5 2 -6 -6 -1 -9 5 -12 3 -9 -6 3 -8 10
-14 15 -14 6 0 15 -4 20 -9 5 -5 2 -6 -6 -1 -9 5 -12 3 -9 -6 3 -8 10 -14 15
-14 6 0 15 -4 20 -9 5 -5 2 -6 -6 -1 -9 5 -12 3 -9 -6 3 -8 10 -14 15 -14 6 0
15 -4 20 -9 5 -5 2 -6 -6 -1 -9 5 -12 3 -9 -6 3 -8 10 -13 16 -12 5 1 16 -5
24 -15 12 -15 11 -16 -4 -3 -11 8 -18 9 -18 3 0 -11 19 -27 32 -27 3 0 10 -4
15 -9 5 -5 2 -6 -6 -1 -9 5 -12 3 -9 -6 3 -8 10 -14 15 -14 6 0 15 -4 20 -9 5
-5 2 -6 -6 -1 -9 5 -12 3 -9 -6 3 -8 10 -14 15 -14 6 0 15 -4 20 -9 5 -5 2 -6
-6 -1 -9 5 -12 3 -9 -6 3 -8 10 -14 15 -14 6 0 15 -4 20 -9 5 -5 2 -6 -6 -1
-9 5 -12 3 -9 -6 3 -8 10 -14 15 -14 6 0 15 -4 20 -9 5 -5 2 -6 -6 -1 -9 5
-12 3 -9 -6 3 -8 10 -14 15 -14 6 0 15 -4 20 -9 5 -5 2 -6 -6 -1 -9 5 -12 3
-9 -6 3 -8 10 -14 15 -14 6 0 15 -4 20 -9 5 -5 2 -6 -6 -1 -9 5 -12 3 -9 -6 3
-8 10 -13 16 -12 5 1 16 -5 24 -15 12 -15 11 -16 -4 -3 -11 8 -18 9 -18 3 0
-11 19 -27 32 -27 3 0 10 -4 15 -9 5 -5 2 -6 -6 -1 -9 5 -12 3 -9 -6 3 -8 10
-14 15 -14 6 0 15 -4 20 -9 5 -5 2 -6 -6 -1 -9 5 -12 3 -9 -6 3 -8 10 -14 15
-14 6 0 15 -4 20 -9 5 -5 2 -6 -6 -1 -9 5 -12 3 -9 -6 3 -8 10 -14 15 -14 6 0
15 -4 20 -9 5 -5 2 -6 -6 -1 -9 5 -12 3 -9 -6 3 -8 10 -14 15 -14 6 0 15 -4
20 -9 5 -5 2 -6 -6 -1 -9 5 -12 3 -9 -6 3 -8 10 -14 15 -14 6 0 15 -4 20 -9 5
-5 2 -6 -6 -1 -9 5 -12 3 -9 -6 3 -8 10 -13 16 -12 6 2 21 -12 32 -30 l22 -32
-26 30 c-31 36 -34 25 -5 -16 11 -16 24 -27 29 -24 5 3 12 0 16 -6 5 -8 3 -9
-6 -4 -8 5 -11 3 -8 -6 3 -8 10 -14 15 -14 6 0 15 -4 20 -9 5 -5 2 -6 -6 -1
-9 5 -12 3 -9 -6 3 -8 10 -14 15 -14 6 0 15 -4 20 -9 5 -5 2 -6 -6 -1 -9 5
-12 3 -9 -6 3 -8 10 -14 15 -14 6 0 15 -4 20 -9 5 -5 2 -6 -6 -1 -9 5 -12 3
-9 -6 3 -8 10 -14 16 -14 5 0 14 -4 19 -9 5 -5 2 -6 -6 -1 -9 5 -12 3 -9 -6 3
-8 10 -14 16 -14 5 0 14 -4 19 -9 5 -5 2 -6 -6 -1 -9 5 -12 3 -9 -6 3 -8 10
-13 16 -12 5 1 16 -5 24 -15 12 -15 11 -16 -4 -3 -10 7 -18 9 -18 3 0 -11 21
-30 33 -30 5 0 12 -4 15 -8 4 -4 1 -4 -7 1 -9 5 -12 3 -9 -6 3 -8 10 -14 16
-14 5 0 14 -4 19 -9 5 -5 2 -6 -6 -1 -9 5 -12 3 -9 -6 3 -8 10 -14 16 -14 5 0
14 -4 19 -9 5 -5 2 -6 -6 -1 -9 5 -12 3 -9 -6 3 -8 10 -14 16 -14 5 0 14 -4
19 -9 5 -5 2 -6 -6 -1 -9 5 -12 3 -9 -6 3 -8 10 -14 16 -14 5 0 14 -4 19 -9 5
-5 2 -6 -6 -1 -9 5 -12 3 -9 -6 3 -8 10 -14 16 -14 5 0 14 -4 19 -9 4 -5 3 -7
-2 -3 -7 3 -11 -11 -11 -36 0 -23 -4 -51 -9 -61 -7 -15 -5 -18 6 -11 8 5 6 -1
-4 -12 -25 -29 -107 -63 -168 -70 l-49 -6 0 -72 0 -72 615 0 615 1 0 71 0 72
-142 6 c-186 7 -243 24 -312 90 l-51 49 52 -44 c73 -63 133 -79 313 -83 l145
-3 -140 7 c-196 11 -255 29 -325 100 -30 31 -51 50 -46 44 11 -19 1 -16 -15 4
-12 14 -12 16 0 9 9 -6 12 -4 9 5 -3 8 -10 14 -16 14 -5 0 -14 4 -19 9 -5 5
-2 6 6 1 9 -5 12 -3 9 6 -3 8 -10 14 -16 14 -5 0 -14 4 -19 9 -5 5 -2 6 6 1 9
-5 12 -3 9 6 -3 8 -10 13 -16 12 -5 -1 -16 5 -24 15 -12 15 -11 16 5 3 9 -7
17 -9 17 -3 0 11 -21 30 -33 30 -5 0 -12 4 -15 8 -4 4 -1 4 7 -1 9 -5 12 -3 9
6 -3 8 -10 14 -16 14 -5 0 -14 4 -19 9 -5 5 -2 6 6 1 9 -5 12 -3 9 6 -3 8 -10
14 -16 14 -5 0 -14 4 -19 9 -5 5 -2 6 6 1 9 -5 12 -3 9 6 -3 8 -10 14 -16 14
-5 0 -14 4 -19 9 -5 5 -2 6 6 1 9 -5 12 -3 9 6 -3 8 -10 14 -16 14 -5 0 -14 4
-19 9 -5 5 -2 6 6 1 9 -5 12 -3 9 6 -3 8 -10 13 -16 12 -5 -1 -16 5 -24 15
-12 15 -11 16 5 3 9 -7 17 -9 17 -3 0 11 -31 39 -37 34 -3 -2 -8 0 -11 4 -4 4
-1 4 7 -1 9 -5 12 -3 9 6 -3 8 -10 14 -16 14 -5 0 -14 4 -19 9 -5 5 -2 6 6 1
9 -5 12 -3 9 6 -3 8 -10 14 -16 14 -5 0 -14 4 -19 9 -5 5 -2 6 6 1 9 -5 12 -3
9 6 -3 8 -10 14 -16 14 -5 0 -14 4 -19 9 -5 5 -2 6 6 1 9 -5 12 -3 9 6 -3 8
-10 14 -16 14 -5 0 -14 4 -19 9 -5 5 -2 6 6 1 9 -5 12 -3 9 6 -3 8 -10 13 -16
12 -5 -1 -16 5 -24 15 -12 15 -11 16 5 3 9 -7 17 -9 17 -3 0 11 -21 30 -33 30
-5 0 -12 4 -15 8 -4 4 -1 4 7 -1 9 -5 12 -3 9 6 -3 8 -10 14 -16 14 -5 0 -14
4 -19 9 -5 5 -2 6 6 1 9 -5 12 -3 9 6 -3 8 -10 14 -16 14 -5 0 -14 4 -19 9 -5
5 -2 6 6 1 9 -5 12 -3 9 6 -3 8 -10 14 -16 14 -5 0 -14 4 -19 9 -5 5 -2 6 6 1
9 -5 12 -3 9 6 -3 8 -10 14 -16 14 -5 0 -14 4 -19 9 -5 5 -2 6 6 1 9 -5 12 -3
9 6 -3 8 -10 13 -16 12 -5 -1 -16 5 -24 15 -12 15 -11 16 5 3 10 -8 17 -9 17
-3 0 11 -19 27 -32 27 -3 0 -10 4 -15 9 -5 5 -2 6 6 1 9 -5 12 -3 9 6 -3 8
-10 14 -16 14 -5 0 -14 4 -19 9 -5 5 -2 6 6 1 9 -5 12 -3 9 6 -3 8 -10 14 -16
14 -5 0 -14 4 -19 9 -5 5 -2 6 6 1 9 -5 12 -3 9 6 -3 8 -10 14 -16 14 -5 0
-14 4 -19 9 -5 5 -2 6 6 1 9 -5 12 -3 9 6 -3 8 -10 14 -16 14 -5 0 -14 4 -19
9 -5 5 -2 6 6 1 9 -5 12 -3 9 6 -3 8 -10 13 -16 12 -6 -2 -21 12 -32 30 l-22
32 26 -30 c31 -36 34 -25 5 16 -11 16 -24 27 -29 24 -5 -3 -12 0 -16 6 -5 8
-3 9 6 4 8 -5 11 -3 8 6 -3 8 -10 14 -15 14 -6 0 -15 4 -20 9 -5 5 -2 6 6 1 9
-5 12 -3 9 6 -3 8 -10 14 -15 14 -6 0 -15 4 -20 9 -5 5 -2 6 6 1 9 -5 12 -3 9
6 -3 8 -10 14 -15 14 -6 0 -15 4 -20 9 -5 5 -2 6 6 1 9 -5 12 -3 9 6 -3 8 -10
14 -15 14 -6 0 -15 4 -20 9 -5 5 -2 6 6 1 9 -5 12 -3 9 6 -3 8 -10 13 -16 12
-5 -1 -16 5 -24 15 -12 15 -11 16 5 3 9 -7 17 -9 17 -3 0 11 -31 39 -37 34 -3
-2 -8 0 -11 4 -4 4 -1 4 7 -1 9 -5 12 -3 9 6 -3 8 -10 14 -15 14 -6 0 -15 4
-20 9 -5 5 -2 6 6 1 9 -5 12 -3 9 6 -3 8 -10 14 -15 14 -6 0 -15 4 -20 9 -5 5
-2 6 6 1 9 -5 12 -3 9 6 -3 8 -10 14 -15 14 -6 0 -15 4 -20 9 -5 5 -2 6 6 1 9
-5 12 -3 9 6 -3 8 -10 14 -15 14 -6 0 -15 4 -20 9 -5 5 -2 6 6 1 9 -5 12 -3 9
6 -3 8 -10 13 -16 12 -5 -1 -16 5 -24 15 -12 15 -11 16 5 3 9 -7 17 -9 17 -3
0 11 -21 30 -33 30 -5 0 -12 4 -15 8 -4 4 -1 4 7 -1 9 -5 12 -3 9 6 -3 8 -10
14 -15 14 -6 0 -15 4 -20 9 -5 5 -2 6 6 1 9 -5 12 -3 9 6 -3 8 -10 14 -15 14
-6 0 -15 4 -20 9 -5 5 -2 6 6 1 9 -5 12 -3 9 6 -3 8 -10 14 -15 14 -6 0 -15 4
-20 9 -5 5 -2 6 6 1 9 -5 12 -3 9 6 -3 8 -10 14 -15 14 -6 0 -15 4 -20 9 -5 5
-2 6 6 1 9 -5 12 -3 9 6 -3 8 -10 13 -16 12 -5 -1 -16 5 -24 15 -12 15 -11 16
5 3 9 -7 17 -9 17 -3 0 11 -20 29 -35 32 -5 1 -12 4 -15 7 -3 4 1 3 9 -2 9 -5
12 -3 9 6 -3 8 -10 14 -15 14 -6 0 -15 4 -20 9 -5 5 -2 6 6 1 9 -5 12 -3 9 6
-3 8 -10 14 -15 14 -6 0 -15 4 -20 9 -5 5 -2 6 6 1 9 -5 12 -3 9 6 -3 8 -10
14 -15 14 -6 0 -15 4 -20 9 -5 5 -2 6 6 1 9 -5 12 -3 9 6 -3 8 -10 14 -15 14
-6 0 -15 4 -20 9 -5 5 -2 6 6 1 9 -5 12 -3 9 6 -3 8 -10 13 -16 12 -5 -1 -16
5 -24 15 -12 15 -11 16 5 3 9 -7 17 -9 17 -3 0 11 -22 31 -32 29 -3 -1 -10 2
-15 7 -5 5 -2 6 6 1 9 -5 12 -3 9 6 -3 8 -10 14 -15 14 -6 0 -15 4 -20 9 -5 5
-2 6 6 1 9 -5 12 -3 9 6 -3 8 -10 14 -15 14 -6 0 -15 4 -20 9 -5 5 -2 6 6 1 9
-5 12 -3 9 6 -3 8 -10 14 -15 14 -6 0 -15 4 -20 9 -5 5 -2 6 6 1 9 -5 12 -3 9
6 -3 8 -10 14 -15 14 -6 0 -15 4 -20 9 -5 5 -2 6 6 1 9 -5 12 -3 9 6 -3 8 -10
13 -16 12 -17 -4 -35 24 -21 33 7 4 9 3 5 -4 -3 -6 -2 -13 4 -17 5 -3 10 -2
10 4 0 5 3 17 7 27 5 13 3 15 -8 9 -8 -5 -11 -5 -6 1 5 5 14 9 20 9 5 0 12 6
15 14 3 9 0 11 -8 6 -9 -6 -11 -4 -6 4 5 7 11 10 14 7 7 -7 32 13 32 26 0 6
-8 4 -17 -3 -16 -13 -17 -12 -5 3 8 10 19 16 24 15 6 -1 13 4 16 12 3 9 0 11
-9 6 -8 -5 -11 -4 -6 1 5 5 14 9 20 9 5 0 12 6 15 14 3 9 0 11 -9 6 -8 -5 -11
-4 -6 1 5 5 14 9 20 9 5 0 12 6 15 14 3 9 0 11 -8 6 -9 -6 -11 -4 -6 4 5 7 11
10 14 7 7 -7 32 13 32 26 0 6 -8 4 -17 -3 -16 -13 -17 -12 -5 3 8 10 19 16 24
15 6 -1 13 4 16 12 3 9 0 11 -9 6 -8 -5 -11 -4 -6 1 5 5 14 9 20 9 5 0 12 6
15 14 3 9 0 11 -9 6 -8 -5 -11 -4 -6 1 5 5 14 9 20 9 5 0 12 6 15 14 3 9 0 11
-8 6 -9 -6 -11 -4 -6 4 5 7 11 10 14 7 7 -7 32 13 32 26 0 6 -8 4 -17 -3 -16
-13 -17 -12 -5 3 8 10 19 16 24 15 6 -1 13 4 16 12 3 9 0 11 -9 6 -8 -5 -11
-4 -6 1 5 5 14 9 20 9 5 0 12 6 15 14 3 9 0 11 -9 6 -8 -5 -11 -4 -6 1 5 5 14
9 20 9 5 0 12 6 15 14 3 9 0 11 -8 6 -9 -6 -11 -4 -6 4 5 7 11 10 14 7 7 -7
32 13 32 26 0 6 -8 4 -17 -3 -16 -13 -17 -12 -5 3 8 10 19 16 24 15 6 -1 13 4
16 12 3 9 0 11 -9 6 -8 -5 -11 -4 -6 1 5 5 14 9 20 9 5 0 12 6 15 14 3 9 0 11
-9 6 -8 -5 -11 -4 -6 1 5 5 14 9 20 9 5 0 12 6 15 14 3 9 0 11 -8 6 -9 -6 -11
-4 -6 4 5 7 11 10 14 7 7 -7 32 13 32 26 0 6 -8 4 -17 -3 -16 -13 -17 -12 -5
3 8 10 19 16 24 15 6 -1 13 4 16 12 3 9 0 11 -9 6 -8 -5 -11 -4 -6 1 5 5 14 9
20 9 5 0 12 6 15 14 3 9 0 11 -9 6 -8 -5 -11 -4 -6 1 5 5 14 9 20 9 5 0 12 6
15 14 3 9 0 11 -8 6 -9 -6 -11 -4 -6 4 5 7 11 10 14 7 7 -7 32 13 32 26 0 6
-8 4 -17 -3 -16 -13 -17 -12 -5 3 8 10 19 16 24 15 6 -1 13 4 16 12 3 9 0 11
-9 6 -8 -5 -11 -4 -6 1 5 5 14 9 20 9 5 0 12 6 15 14 3 9 0 11 -9 6 -8 -5 -11
-4 -6 1 5 5 14 9 20 9 5 0 12 6 15 14 3 9 0 11 -9 6 -8 -5 -11 -4 -6 1 5 5 14
9 20 9 5 0 12 6 15 14 3 9 0 11 -9 5 -12 -7 -12 -5 0 9 16 20 26 23 15 5 -5
-9 -2 -9 9 1 20 16 23 36 5 25 -8 -4 -10 -3 -5 2 5 5 14 9 19 9 6 0 13 6 16
14 3 9 0 11 -9 6 -8 -5 -11 -4 -6 1 5 5 14 9 19 9 6 0 13 6 16 14 3 9 0 11 -9
6 -8 -5 -11 -4 -6 1 5 5 14 9 19 9 6 0 13 6 16 14 3 9 0 11 -9 5 -12 -7 -12
-5 0 9 16 20 26 23 15 5 -5 -9 -2 -9 9 1 20 16 23 36 5 25 -8 -4 -10 -3 -5 2
5 5 14 9 19 9 6 0 13 6 16 14 3 9 0 11 -9 6 -8 -5 -11 -4 -6 1 5 5 14 9 19 9
6 0 13 6 16 14 3 9 0 11 -9 6 -8 -5 -11 -4 -6 1 5 5 14 9 19 9 6 0 13 6 16 14
3 9 0 11 -8 6 -9 -6 -11 -4 -6 4 5 7 11 10 14 7 7 -7 32 13 32 26 0 6 -8 4
-17 -3 -16 -13 -17 -12 -5 3 8 10 19 16 24 15 6 -1 13 4 16 12 3 9 0 11 -9 6
-8 -5 -11 -4 -6 1 5 5 14 9 19 9 6 0 13 6 16 14 3 9 0 11 -9 5 -12 -7 -12 -5
0 9 16 20 26 23 15 5 -5 -9 -2 -9 9 1 20 16 23 36 5 25 -9 -5 -9 -2 1 9 16 20
25 22 16 5 -4 -7 16 12 43 43 28 31 76 73 106 94 31 21 56 40 56 42 0 12 -71
-40 -134 -96 -56 -51 -61 -55 -26 -17 132 141 358 236 561 236 l59 0 0 75 0
75 -530 0 -530 0 0 -75 0 -75 33 0 c34 0 110 -31 121 -49 4 -6 -8 -2 -26 8
-18 11 -53 22 -78 25 -44 5 -41 4 32 -15 20 -5 52 -22 69 -37 18 -15 35 -26
38 -25 3 1 8 -1 11 -4 3 -4 -1 -2 -9 2 -11 6 -13 4 -7 -11 18 -42 27 -100 21
-139 -4 -35 -4 -37 6 -15 6 14 8 45 6 69 -4 34 -2 40 5 27 16 -28 3 -104 -21
-127 -23 -21 -29 -45 -8 -33 7 4 9 3 4 -2 -5 -5 -14 -9 -19 -9 -6 0 -13 -6
-16 -14 -3 -9 0 -11 9 -6 8 5 11 4 6 -1 -5 -5 -14 -9 -19 -9 -6 0 -13 -6 -16
-14 -3 -9 0 -11 9 -6 8 5 11 4 6 -1 -5 -5 -14 -9 -19 -9 -6 0 -13 -6 -16 -14
-3 -9 0 -11 9 -6 8 5 11 4 6 -1 -5 -5 -14 -9 -19 -9 -6 0 -13 -6 -16 -14 -3
-9 0 -11 8 -6 9 6 11 4 6 -4 -5 -7 -11 -10 -14 -7 -7 7 -32 -13 -32 -26 0 -6
8 -4 18 3 15 13 16 12 4 -3 -8 -10 -19 -16 -24 -15 -6 1 -13 -4 -16 -12 -3 -9
0 -11 9 -6 8 5 11 4 6 -1 -5 -5 -14 -9 -20 -9 -5 0 -12 -6 -15 -14 -3 -9 0
-11 9 -6 8 5 11 4 6 -1 -5 -5 -14 -9 -20 -9 -5 0 -12 -6 -15 -14 -3 -9 0 -11
9 -6 8 5 11 4 6 -1 -5 -5 -14 -9 -20 -9 -5 0 -12 -6 -15 -14 -3 -9 0 -11 9 -5
12 7 12 5 0 -9 -16 -20 -26 -23 -15 -4 5 8 2 8 -9 -2 -20 -16 -23 -36 -4 -25
7 4 9 3 4 -2 -5 -5 -14 -9 -20 -9 -5 0 -12 -6 -15 -14 -3 -9 0 -11 9 -6 8 5
11 4 6 -1 -5 -5 -14 -9 -20 -9 -5 0 -12 -6 -15 -14 -3 -9 0 -11 9 -6 8 5 11 4
6 -1 -5 -5 -14 -9 -20 -9 -5 0 -12 -6 -15 -14 -3 -9 0 -11 8 -6 9 6 11 4 6 -4
-5 -7 -11 -10 -14 -7 -7 7 -32 -13 -32 -26 0 -6 8 -4 18 3 15 13 16 12 4 -3
-8 -10 -19 -16 -24 -15 -6 1 -13 -4 -16 -12 -3 -9 0 -11 9 -6 8 5 11 4 6 -1
-5 -5 -14 -9 -20 -9 -5 0 -12 -6 -15 -14 -3 -9 0 -11 9 -6 8 5 11 4 6 -1 -5
-5 -14 -9 -20 -9 -5 0 -12 -6 -15 -14 -3 -9 0 -11 9 -6 8 5 11 4 6 -1 -5 -5
-14 -9 -20 -9 -5 0 -12 -6 -15 -14 -3 -9 0 -11 9 -5 12 7 12 5 0 -9 -16 -20
-26 -23 -15 -4 5 8 2 8 -9 -2 -20 -16 -23 -36 -4 -25 7 4 9 3 4 -2 -5 -5 -14
-9 -20 -9 -5 0 -12 -6 -15 -14 -3 -9 0 -11 9 -6 8 5 11 4 6 -1 -5 -5 -14 -9
-20 -9 -5 0 -12 -6 -15 -14 -3 -9 0 -11 9 -6 8 5 11 4 6 -1 -5 -5 -14 -9 -20
-9 -5 0 -12 -6 -15 -14 -3 -9 0 -11 8 -6 9 6 11 4 6 -4 -5 -7 -11 -10 -14 -7
-7 7 -32 -13 -32 -26 0 -6 8 -4 18 3 15 13 16 12 4 -3 -8 -10 -19 -16 -24 -15
-6 1 -13 -4 -16 -12 -3 -9 0 -11 9 -6 8 5 11 4 6 -1 -5 -5 -14 -9 -20 -9 -5 0
-12 -6 -15 -14 -3 -9 0 -11 9 -6 8 5 11 4 6 -1 -5 -5 -14 -9 -20 -9 -5 0 -12
-6 -15 -14 -3 -9 0 -11 9 -6 8 5 11 4 6 -1 -5 -5 -14 -9 -20 -9 -5 0 -12 -6
-15 -14 -3 -9 0 -11 9 -5 12 7 12 5 0 -9 -16 -20 -26 -23 -15 -4 5 8 2 8 -9
-2 -20 -16 -23 -36 -4 -25 7 4 9 3 4 -2 -5 -5 -14 -9 -20 -9 -5 0 -12 -6 -15
-14 -3 -9 0 -11 9 -6 8 5 11 4 6 -1 -5 -5 -14 -9 -20 -9 -5 0 -12 -6 -15 -14
-3 -9 0 -11 9 -6 8 5 11 4 6 -1 -5 -5 -14 -9 -20 -9 -5 0 -12 -6 -15 -14 -3
-9 0 -11 8 -6 9 6 11 4 6 -4 -5 -7 -11 -10 -14 -7 -7 7 -32 -13 -32 -26 0 -6
8 -4 18 3 15 13 16 12 4 -3 -8 -10 -19 -16 -24 -15 -6 1 -13 -4 -16 -12 -3 -9
0 -11 9 -6 8 5 11 4 6 -1 -5 -5 -14 -9 -20 -9 -5 0 -12 -6 -15 -14 -3 -9 0
-11 9 -6 8 5 11 4 6 -1 -5 -5 -13 -10 -18 -10 -5 -1 -14 -2 -20 -3 -5 0 -7 -6
-4 -11 4 -6 11 -7 17 -4 7 5 8 2 4 -5 -6 -9 -13 -8 -27 5 -21 19 -25 29 -8 18
7 -4 10 -1 7 7 -3 8 -10 14 -15 14 -6 0 -15 4 -20 9 -5 5 -2 6 6 1 9 -5 12 -3
9 6 -3 8 -10 14 -15 14 -6 0 -15 4 -20 9 -5 5 -2 6 6 1 9 -5 12 -3 9 6 -3 8
-10 14 -15 14 -6 0 -15 4 -20 9 -5 5 -2 6 6 1 9 -5 12 -3 9 6 -3 8 -10 14 -15
14 -6 0 -15 4 -20 9 -5 5 -2 6 6 1 9 -5 12 -3 9 6 -3 8 -10 13 -16 12 -5 -1
-16 5 -24 15 -12 15 -11 16 5 3 9 -7 17 -9 17 -3 0 11 -31 39 -37 34 -3 -2 -8
0 -11 4 -4 4 -1 4 7 -1 9 -5 12 -3 9 6 -3 8 -10 14 -15 14 -6 0 -15 4 -20 9
-5 5 -2 6 6 1 9 -5 12 -3 9 6 -3 8 -10 14 -15 14 -6 0 -15 4 -20 9 -5 5 -2 6
6 1 9 -5 12 -3 9 6 -3 8 -10 14 -15 14 -6 0 -15 4 -20 9 -5 5 -2 6 6 1 9 -5
12 -3 9 6 -3 8 -10 14 -15 14 -6 0 -15 4 -20 9 -5 5 -2 6 6 1 9 -5 12 -3 9 6
-3 8 -10 14 -15 14 -6 0 -15 4 -20 9 -5 5 -2 6 6 1 9 -5 12 -3 9 6 -3 8 -10
13 -16 12 -5 -1 -16 5 -24 15 -12 15 -11 16 5 3 9 -7 17 -9 17 -3 0 11 -20 29
-35 32 -5 1 -12 4 -15 7 -3 4 1 3 9 -2 9 -5 12 -3 9 6 -3 8 -10 14 -15 14 -6
0 -15 4 -20 9 -5 5 -2 6 6 1 9 -5 12 -3 9 6 -3 8 -10 14 -15 14 -6 0 -15 4
-20 9 -5 5 -2 6 6 1 9 -5 12 -3 9 6 -3 8 -10 14 -15 14 -6 0 -15 4 -20 9 -5 5
-2 6 6 1 9 -5 12 -3 9 6 -3 8 -10 14 -15 14 -6 0 -15 4 -20 9 -5 5 -2 6 6 1 9
-5 12 -3 9 6 -3 8 -10 13 -16 12 -5 -1 -16 5 -24 15 -12 15 -11 16 5 3 9 -7
17 -9 17 -3 0 11 -32 40 -36 32 -1 -3 -6 -1 -11 4 -5 5 -2 6 6 1 9 -5 12 -3 9
6 -3 8 -10 14 -15 14 -6 0 -15 4 -20 9 -5 5 -2 6 6 1 9 -5 12 -3 9 6 -3 8 -10
14 -15 14 -6 0 -15 4 -20 9 -5 5 -2 6 6 1 9 -5 12 -3 9 6 -3 8 -10 14 -15 14
-6 0 -15 4 -20 9 -5 5 -2 6 6 1 9 -5 12 -3 9 6 -3 8 -10 14 -15 14 -6 0 -15 4
-20 9 -5 5 -2 6 6 1 9 -5 12 -3 9 6 -3 8 -10 14 -16 14 -6 0 -17 7 -24 15 -11
12 -11 12 5 1 10 -8 17 -9 17 -3 0 11 -19 27 -32 27 -3 0 -10 4 -15 9 -5 5 -2
6 6 1 9 -5 12 -3 9 6 -3 8 -10 14 -15 14 -6 0 -15 4 -20 9 -5 5 -2 6 6 1 9 -5
12 -3 9 6 -3 8 -10 14 -15 14 -6 0 -15 4 -20 9 -5 5 -2 6 6 1 9 -5 12 -3 9 6
-3 8 -10 14 -15 14 -6 0 -15 4 -20 9 -5 5 -2 6 6 1 9 -5 12 -3 9 6 -3 8 -10
14 -15 14 -6 0 -15 4 -20 9 -5 5 -2 6 6 1 9 -5 12 -3 9 6 -3 8 -10 13 -16 12
-6 -2 -21 12 -32 30 l-22 32 26 -30 c31 -36 34 -25 5 16 -11 16 -24 27 -29 24
-5 -3 -12 0 -16 6 -5 8 -3 9 6 4 8 -5 11 -3 8 6 -3 8 -10 14 -15 14 -6 0 -15
4 -20 9 -5 5 -2 6 6 1 9 -5 12 -3 9 6 -3 8 -10 14 -15 14 -6 0 -15 4 -20 9 -5
5 -2 6 6 1 9 -5 12 -3 9 6 -3 8 -10 14 -15 14 -6 0 -15 4 -20 9 -5 5 -2 6 6 1
9 -5 12 -3 9 6 -3 8 -10 14 -15 14 -6 0 -15 4 -20 9 -5 5 -2 6 6 1 9 -5 12 -3
9 6 -3 8 -10 14 -16 14 -6 0 -17 7 -24 15 -11 12 -11 12 5 1 21 -17 22 -8 1
24 -9 14 -20 23 -24 20 -5 -3 -12 0 -16 6 -5 8 -3 9 6 4 10 -6 11 -4 5 11 -5
10 -9 38 -9 61 0 25 -4 39 -11 36 -5 -4 1 6 15 21 35 39 92 66 158 74 l57 7 3
73 3 72 -621 0 -620 0 0 -69 c0 -54 4 -70 16 -75 9 -3 62 -6 118 -6 162 0 256
-24 331 -85 40 -33 28 -32 -16 1 -39 29 -94 54 -118 53 -9 0 6 -7 32 -16 26
-9 67 -33 91 -54 24 -21 45 -36 48 -34 3 3 13 -5 24 -17 15 -18 16 -20 2 -9
-11 8 -18 9 -18 3 0 -11 19 -27 32 -27 3 0 10 -4 15 -9 5 -5 2 -6 -6 -1 -9 5
-12 3 -9 -6 3 -8 10 -14 15 -14 6 0 15 -4 20 -9 5 -5 2 -6 -6 -1 -9 5 -12 3
-9 -6 3 -8 10 -14 16 -14 6 0 17 -7 24 -15 11 -12 11 -12 -4 -1 -11 8 -18 9
-18 3 0 -11 19 -27 32 -27 3 0 10 -4 15 -9 5 -5 2 -6 -6 -1 -9 5 -12 3 -9 -6
3 -8 10 -14 15 -14 6 0 15 -4 20 -9 5 -5 2 -6 -6 -1 -9 5 -12 3 -9 -6 3 -8 10
-14 15 -14 6 0 15 -4 20 -9 5 -5 2 -6 -6 -1 -9 5 -12 3 -9 -6 3 -8 10 -14 15
-14 6 0 15 -4 20 -9 5 -5 2 -6 -6 -1 -9 5 -12 3 -9 -6 3 -8 10 -14 15 -14 6 0
15 -4 20 -9 5 -5 2 -6 -6 -1 -9 5 -12 3 -9 -6 3 -8 10 -14 15 -14 6 0 15 -4
20 -9 5 -5 2 -6 -6 -1 -9 5 -12 3 -9 -6 3 -8 10 -13 16 -12 6 2 21 -12 32 -30
l22 -32 -26 30 c-31 36 -34 25 -5 -16 11 -16 24 -27 29 -24 5 3 12 0 16 -6 5
-8 3 -9 -6 -4 -8 5 -11 3 -8 -6 3 -8 10 -14 15 -14 6 0 15 -4 20 -9 5 -5 2 -6
-6 -1 -9 5 -12 3 -9 -6 3 -8 10 -14 15 -14 6 0 15 -4 20 -9 5 -5 2 -6 -6 -1
-9 5 -12 3 -9 -6 3 -8 10 -14 15 -14 6 0 15 -4 20 -9 5 -5 2 -6 -6 -1 -9 5
-12 3 -9 -6 3 -8 10 -14 15 -14 6 0 15 -4 20 -9 5 -5 2 -6 -6 -1 -9 5 -12 3
-9 -6 3 -8 10 -14 15 -14 6 0 15 -4 20 -9 5 -5 2 -6 -6 -1 -9 5 -12 3 -9 -6 3
-8 10 -14 16 -14 6 0 17 -7 24 -15 11 -12 11 -12 -4 -1 -11 8 -18 9 -18 3 0
-11 19 -27 32 -27 3 0 10 -4 15 -9 5 -5 2 -6 -6 -1 -9 5 -12 3 -9 -6 3 -8 10
-14 15 -14 6 0 15 -4 20 -9 5 -5 2 -6 -6 -1 -9 5 -12 3 -9 -6 3 -8 10 -14 15
-14 6 0 15 -4 20 -9 5 -5 2 -6 -6 -1 -9 5 -12 3 -9 -6 3 -8 10 -14 15 -14 6 0
15 -4 20 -9 5 -5 2 -6 -6 -1 -9 5 -12 3 -9 -6 3 -8 10 -14 15 -14 6 0 15 -4
20 -9 5 -5 2 -6 -6 -1 -9 5 -12 3 -9 -6 3 -8 10 -14 15 -14 6 0 15 -4 20 -9 5
-5 2 -6 -6 -1 -9 5 -12 3 -9 -6 3 -8 10 -14 16 -14 6 0 17 -7 24 -15 11 -12
11 -12 -5 -1 -9 7 -17 9 -17 3 0 -11 32 -40 36 -32 1 3 6 1 11 -4 5 -5 2 -6
-6 -1 -9 5 -12 3 -9 -6 3 -8 10 -14 15 -14 6 0 15 -4 20 -9 5 -5 2 -6 -6 -1
-9 5 -12 3 -9 -6 3 -8 10 -14 15 -14 6 0 15 -4 20 -9 5 -5 2 -6 -6 -1 -9 5
-12 3 -9 -6 3 -8 10 -14 15 -14 6 0 15 -4 20 -9 5 -5 2 -6 -6 -1 -9 5 -12 3
-9 -6 3 -8 10 -14 15 -14 6 0 15 -4 20 -9 5 -5 2 -6 -6 -1 -9 5 -12 3 -9 -6 3
-8 10 -14 15 -14 6 0 15 -4 20 -9 5 -5 2 -6 -6 -1 -9 5 -12 3 -9 -6 3 -8 10
-13 16 -12 6 2 21 -12 32 -30 l22 -32 -26 30 c-31 36 -34 25 -5 -16 11 -16 24
-27 29 -24 5 3 12 0 16 -6 5 -8 3 -9 -6 -4 -8 5 -11 3 -8 -6 3 -8 10 -14 15
-14 6 0 15 -4 20 -9 5 -5 2 -6 -6 -1 -9 5 -12 3 -9 -6 3 -8 10 -14 15 -14 6 0
15 -4 20 -9 5 -5 2 -6 -6 -1 -9 5 -12 3 -9 -6 3 -8 10 -14 15 -14 6 0 15 -4
20 -9 5 -5 2 -6 -6 -1 -9 5 -12 3 -9 -6 3 -8 10 -14 15 -14 6 0 15 -4 20 -9 5
-5 2 -6 -6 -1 -9 5 -12 3 -9 -6 3 -8 10 -14 15 -14 6 0 15 -4 20 -9 5 -5 2 -6
-6 -1 -9 5 -12 3 -9 -6 3 -8 10 -14 16 -14 6 0 17 -7 24 -15 11 -12 11 -12 -4
-1 -11 8 -18 9 -18 3 0 -11 19 -27 32 -27 3 0 10 -4 15 -9 5 -5 2 -6 -6 -1 -9
5 -12 3 -9 -6 3 -8 10 -14 15 -14 6 0 15 -4 20 -9 5 -5 2 -6 -6 -1 -9 5 -12 3
-9 -6 3 -8 10 -14 15 -14 6 0 15 -4 20 -9 5 -5 2 -6 -6 -1 -9 5 -12 3 -9 -6 3
-8 10 -14 15 -14 6 0 15 -4 20 -9 5 -5 2 -6 -6 -1 -9 5 -12 3 -9 -6 3 -8 10
-14 15 -14 6 0 15 -4 20 -9 5 -5 2 -6 -6 -1 -9 5 -12 3 -9 -6 3 -8 10 -14 15
-14 6 0 15 -4 20 -9 5 -5 2 -6 -6 -1 -9 5 -12 3 -9 -6 3 -8 10 -13 16 -12 5 1
16 -5 24 -15 12 -15 11 -16 -4 -3 -11 8 -18 9 -18 3 0 -11 19 -27 32 -27 3 0
10 -4 15 -9 5 -5 2 -6 -6 -1 -9 5 -12 3 -9 -6 3 -8 10 -14 15 -14 6 0 15 -4
20 -9 5 -5 2 -6 -6 -1 -9 5 -12 3 -9 -6 3 -8 10 -14 15 -14 6 0 15 -4 20 -9 5
-5 2 -6 -6 -1 -9 5 -12 3 -9 -6 3 -8 10 -14 15 -14 6 0 15 -4 20 -9 5 -5 2 -6
-6 -1 -9 5 -12 3 -9 -6 3 -8 10 -14 16 -14 7 0 12 -4 12 -10 0 -5 -5 -10 -12
-10 -6 0 -13 -6 -16 -14 -3 -9 0 -11 9 -6 8 5 11 4 6 -1 -5 -5 -14 -9 -20 -9
-5 0 -12 -6 -15 -14 -3 -9 0 -11 9 -6 8 5 11 4 6 -1 -5 -5 -14 -9 -20 -9 -5 0
-12 -6 -15 -14 -3 -9 0 -11 9 -6 8 5 11 4 6 -1 -5 -5 -14 -9 -20 -9 -5 0 -12
-6 -15 -14 -3 -9 0 -11 9 -6 8 5 11 4 6 -1 -5 -5 -14 -9 -20 -9 -5 0 -12 -6
-15 -14 -3 -9 0 -11 8 -6 9 6 11 4 6 -4 -5 -7 -11 -10 -14 -7 -7 7 -32 -13
-32 -26 0 -6 8 -4 18 3 15 13 16 12 4 -3 -8 -10 -19 -16 -24 -15 -6 1 -13 -4
-16 -12 -3 -9 0 -11 9 -6 8 5 11 4 6 -1 -5 -5 -14 -9 -20 -9 -5 0 -12 -6 -15
-14 -3 -9 0 -11 9 -6 8 5 11 4 6 -1 -5 -5 -14 -9 -20 -9 -5 0 -12 -6 -15 -14
-3 -9 0 -11 9 -6 8 5 11 4 6 -1 -5 -5 -14 -9 -20 -9 -5 0 -12 -6 -15 -14 -3
-9 0 -11 9 -6 8 5 11 4 6 -1 -5 -5 -14 -9 -20 -9 -5 0 -12 -6 -15 -14 -3 -9 0
-11 9 -6 8 5 11 4 6 -1 -5 -5 -12 -9 -15 -9 -13 0 -32 -16 -32 -27 0 -6 7 -5
18 3 15 11 15 11 4 -1 -7 -8 -18 -15 -24 -15 -6 0 -13 -6 -16 -14 -3 -9 0 -11
9 -6 8 5 11 4 6 -1 -5 -5 -14 -9 -20 -9 -5 0 -12 -6 -15 -14 -3 -9 0 -11 9 -6
8 5 11 4 6 -1 -5 -5 -14 -9 -20 -9 -5 0 -12 -6 -15 -14 -3 -9 0 -11 9 -6 8 5
11 4 6 -1 -5 -5 -14 -9 -20 -9 -5 0 -12 -6 -15 -14 -3 -9 0 -11 9 -6 8 5 11 4
6 -1 -5 -5 -14 -9 -20 -9 -5 0 -12 -6 -15 -14 -3 -9 0 -11 9 -6 8 5 11 4 6 -1
-5 -5 -12 -9 -15 -9 -13 0 -32 -16 -32 -27 0 -6 7 -5 18 3 15 11 15 11 4 -1
-7 -8 -18 -15 -24 -15 -6 0 -13 -6 -16 -14 -3 -9 0 -11 9 -6 8 5 11 4 6 -1 -5
-5 -14 -9 -20 -9 -5 0 -12 -6 -15 -14 -3 -9 0 -11 9 -6 8 5 11 4 6 -1 -5 -5
-14 -9 -20 -9 -5 0 -12 -6 -15 -14 -3 -9 0 -11 9 -6 8 5 11 4 6 -1 -5 -5 -14
-9 -20 -9 -5 0 -12 -6 -15 -14 -3 -9 0 -11 9 -6 8 5 11 4 6 -1 -5 -5 -12 -9
-15 -9 -13 0 -32 -16 -32 -27 0 -6 7 -5 18 3 15 11 15 11 4 -1 -7 -8 -18 -15
-24 -15 -6 0 -13 -6 -16 -14 -3 -9 0 -11 9 -6 8 5 11 4 6 -1 -5 -5 -14 -9 -20
-9 -5 0 -12 -6 -15 -14 -3 -9 0 -11 9 -6 8 5 11 4 6 -1 -5 -5 -14 -9 -20 -9
-5 0 -12 -6 -15 -14 -3 -9 0 -11 9 -6 8 5 11 4 6 -1 -5 -5 -14 -9 -20 -9 -5 0
-12 -6 -15 -14 -3 -9 0 -11 9 -6 8 5 11 4 6 -1 -5 -5 -14 -9 -20 -9 -5 0 -12
-6 -15 -14 -3 -9 0 -11 9 -6 8 5 11 4 6 -1 -5 -5 -12 -9 -15 -9 -13 0 -32 -16
-32 -27 0 -6 7 -5 17 3 16 11 16 11 5 -1 -7 -8 -18 -15 -24 -15 -6 0 -13 -6
-16 -14 -3 -9 0 -11 9 -6 8 5 11 4 6 -1 -5 -5 -14 -9 -20 -9 -5 0 -12 -6 -15
-14 -3 -9 0 -11 9 -6 8 5 11 4 6 -1 -5 -5 -14 -9 -20 -9 -5 0 -12 -6 -15 -14
-3 -9 0 -11 9 -6 8 5 11 4 6 -1 -5 -5 -14 -9 -20 -9 -5 0 -12 -6 -15 -14 -3
-9 0 -11 9 -6 8 5 11 4 6 -1 -5 -5 -14 -9 -20 -9 -5 0 -12 -6 -15 -14 -3 -9 0
-11 9 -6 8 5 11 4 6 -1 -5 -5 -12 -9 -15 -9 -13 0 -32 -16 -32 -27 0 -6 7 -5
18 3 15 11 15 11 4 -1 -7 -8 -18 -15 -24 -15 -6 0 -13 -6 -16 -14 -3 -9 0 -11
9 -6 8 5 11 4 6 -1 -5 -5 -14 -9 -20 -9 -5 0 -12 -6 -15 -14 -3 -9 0 -11 9 -6
8 5 11 4 6 -1 -5 -5 -14 -9 -20 -9 -5 0 -12 -6 -15 -14 -3 -9 0 -11 9 -6 8 5
11 4 6 -1 -5 -5 -14 -9 -20 -9 -5 0 -12 -6 -15 -14 -3 -9 0 -11 9 -6 8 5 11 4
6 -1 -5 -5 -14 -9 -20 -9 -5 0 -12 -6 -15 -14 -3 -9 0 -11 9 -6 8 5 11 4 6 -1
-5 -5 -12 -9 -15 -9 -13 0 -32 -16 -32 -27 0 -6 7 -5 18 3 15 11 15 11 4 -1
-7 -8 -18 -15 -24 -15 -6 0 -13 -6 -16 -14 -3 -9 0 -11 9 -6 8 5 11 4 6 -1 -5
-5 -14 -9 -20 -9 -5 0 -12 -6 -15 -14 -3 -9 0 -11 9 -6 8 5 11 4 6 -1 -5 -5
-14 -9 -20 -9 -5 0 -12 -6 -15 -14 -3 -9 0 -11 9 -6 8 5 11 4 6 -1 -5 -5 -14
-9 -20 -9 -5 0 -12 -6 -15 -14 -3 -9 0 -11 9 -6 8 5 11 4 6 -1 -5 -5 -12 -9
-15 -9 -13 0 -32 -16 -32 -27 0 -6 7 -5 18 3 15 11 15 11 4 -1 -7 -8 -16 -15
-20 -16 -4 0 -46 -39 -93 -86 -73 -73 -102 -94 -190 -138 -57 -28 -93 -48 -79
-44 31 8 134 59 175 86 l30 20 -25 -23 c-37 -33 -195 -105 -273 -124 -38 -9
-109 -19 -158 -22 l-89 -6 0 -75 0 -75 173 5 c94 3 156 2 137 -2 -19 -4 -27
-8 -17 -9 15 -1 17 -8 13 -54 l-5 -52 10 53 c6 30 13 51 16 49 11 -12 -67
-394 -88 -425 -9 -15 -10 -14 -4 3 13 39 54 229 60 274 3 25 -10 -21 -29 -104
-38 -171 -74 -281 -119 -375 -42 -86 -42 -84 -26 -75 8 5 11 4 6 -1 -5 -5 -14
-9 -19 -9 -6 0 -13 -6 -16 -14 -3 -9 0 -11 9 -6 8 5 11 4 6 -1 -5 -5 -14 -9
-19 -9 -6 0 -13 -6 -16 -14 -3 -9 0 -11 9 -6 8 5 5 -1 -5 -13 -23 -26 -34 -29
-15 -5 7 10 -14 -8 -47 -39 -32 -31 -84 -73 -114 -92 -30 -20 -51 -36 -47 -36
13 0 90 51 147 97 l55 45 -50 -47 c-141 -131 -346 -202 -650 -224 -173 -13
-1006 -14 -1094 -1 -45 6 -71 16 -85 31 -12 12 -15 18 -7 14 11 -7 12 -4 5 11
-5 11 -10 380 -12 872 l-3 852 328 2 328 3 -335 5 -335 6 370 -2 c257 -1 385
-5 420 -14 82 -20 168 -65 205 -106 l35 -39 -40 36 c-40 37 -103 74 -111 66
-2 -2 14 -12 36 -22 23 -10 55 -35 72 -54 18 -20 35 -36 39 -36 4 0 11 -4 16
-9 5 -5 3 -6 -4 -2 -17 9 -16 6 3 -40 9 -21 22 -68 29 -104 7 -36 13 -54 14
-40 0 24 -7 64 -23 120 -6 21 -5 22 4 8 19 -31 39 -162 46 -302 l7 -136 49 0
48 0 0 750 0 750 -48 0 -49 0 -6 -126 c-7 -129 -24 -253 -37 -267 -4 -4 -1 23
6 60 7 37 15 129 18 203 l5 135 -13 -160 c-12 -142 -29 -240 -52 -299 -6 -15
-4 -17 6 -11 9 5 11 4 6 -4 -4 -6 -11 -9 -15 -6 -5 2 -20 -12 -35 -33 -28 -40
-64 -65 -135 -93 -25 -10 -39 -18 -30 -19 30 0 139 62 170 98 18 20 25 26 17
12 -38 -62 -146 -119 -270 -141 -35 -6 -216 -12 -413 -14 l-350 -3 350 8 c193
5 370 13 395 19 45 10 45 10 5 6 -22 -3 -194 -8 -383 -11 l-343 -7 3 764 c2
438 7 772 12 783 7 15 6 18 -5 11 -8 -4 -5 2 6 14 34 35 114 41 591 41 602 0
763 -14 947 -80 82 -30 195 -100 237 -146 14 -15 -1 -6 -32 19 -32 25 -68 51
-80 57 -20 9 -20 8 2 -7 14 -10 50 -41 81 -70 31 -29 58 -51 61 -48 3 3 11 -3
19 -12 13 -16 12 -17 -3 -4 -11 8 -18 9 -18 3 0 -11 19 -27 32 -27 3 0 10 -4
15 -9 5 -5 3 -6 -4 -2 -16 9 -16 1 -2 -25 5 -11 14 -17 19 -14 6 4 7 -1 3 -11
-3 -10 -2 -15 3 -12 5 4 10 -4 10 -15 1 -12 13 -54 28 -94 14 -39 37 -120 51
-180 14 -59 22 -85 19 -58 -3 28 -16 90 -29 138 -12 49 -19 85 -15 80 20 -21
78 -319 95 -488 11 -109 8 -105 70 -105 37 0 55 4 55 13 1 6 -30 294 -67 640
l-67 627 -1251 2 -1250 3 1250 5 1250 5 -1235 3 -1236 2 -44 603 c-25 331 -46
589 -48 572 -2 -16 15 -273 38 -570 36 -481 45 -643 34 -595 -2 8 -22 274 -44
590 -23 316 -43 585 -46 598 l-4 22 -1655 0 c-1569 0 -1655 -1 -1656 -17 -2
-72 -77 -959 -78 -928 0 22 15 242 34 490 19 247 33 451 31 453 -3 2 -7 -25
-10 -60z m1494 -1861 c0 -920 -4 -1677 -8 -1684 -4 -6 -7 749 -7 1677 0 928 3
1686 8 1683 4 -2 7 -757 7 -1676z m2380 -342 l-5 -760 -3 731 c-2 605 1 817
12 792 0 -2 -1 -345 -4 -763z m2 -1933 c2 -392 0 -703 -4 -690 -3 13 -5 397
-5 853 1 457 3 767 4 690 2 -77 4 -461 5 -853z"/>
<path d="M5579 260 c-32 -19 -191 -59 -296 -76 -87 -14 -213 -19 -648 -24
l-540 -7 545 2 c589 3 652 7 837 61 79 23 152 53 128 53 -5 0 -17 -4 -26 -9z"/>
</g>
</svg>
