<?xml version="1.0" encoding="utf-8"?>
<!-- Generator: Adobe Illustrator 22.0.1, SVG Export Plug-In . SVG Version: 6.00 Build 0)  -->
<svg version="1.1" id="Layer_1" xmlns="http://www.w3.org/2000/svg" xmlns:xlink="http://www.w3.org/1999/xlink" x="0px" y="0px"
	 viewBox="0 0 120 120" style="enable-background:new 0 0 120 120;" xml:space="preserve">
<style type="text/css">
	.st0{fill:#333333;}
</style>
<path class="st0" d="M49.2,66.8c-1,0-2,0.3-2.7,1c-0.7,0.9-1.1,1.9-1.3,3H53c0-1.2-0.3-2.2-1-3C51.2,67,50.2,66.6,49.2,66.8z"/>
<path class="st0" d="M103.7,26.5L103.7,26.5c-0.1-0.2-0.3-0.5-0.4-0.7L80.6,3.2c-0.1-0.1-0.3-0.3-0.6-0.4l-0.1-0.1
	c-0.1-0.1-0.4-0.1-0.6-0.1c-0.1,0-0.4,0-0.6,0H22.9c-1.4,0-2.6,1.1-2.6,2.6v46.9h-1.4c-1.6,0-2.9,1.3-2.9,2.9v29
	c0,1.6,1.3,2.9,2.9,2.9h1.4V115c0,1.4,1.1,2.6,2.6,2.6h78.3c1.4,0,2.6-1.2,2.6-2.6V27.8c0.2-0.1,0.2-0.3,0.2-0.6
	S103.9,26.8,103.7,26.5z M25.1,59.2h16.8v3h-6.6l0.1,18.5h-3.7V62.2h-6.6V59.2z M46.4,77c1,0.9,2.3,1.3,3.6,1.3c1,0,1.9-0.1,2.9-0.3
	c1-0.3,1.9-0.6,2.7-0.9V80c-0.9,0.4-1.7,0.7-2.7,0.9c-0.9-0.1-2,0.1-3.1,0.1c-2.3,0.1-4.5-0.7-6.2-2.3c-1.6-1.6-2.3-3.9-2.2-6
	c-0.1-2.3,0.6-4.5,2-6.2c1.4-1.6,3.6-2.4,5.8-2.3c2-0.1,3.9,0.6,5.3,2c1.3,1.4,2,3.5,1.9,5.3v1.9H45.1C45.1,74.7,45.5,76,46.4,77z
	 M98.8,112.2l-73.2,0.1V86.9h57.3c1.6,0,2.9-1.3,2.9-2.9V55c0-1.6-1.3-2.9-2.9-2.9H25.6V7.7h50.5v20c0,1.4,1.2,2.6,2.6,2.6h20.1
	V112.2z M58.1,59h4l5.2,8.1l5.2-8.2h4l-7,10.3L77,80.6h-4.2l-5.6-8.8l-5.8,8.8h-3.9L65,69.3L58.1,59z"/>
</svg>
